# xmcd CD database file
#
# Track frame offsets:
#	150
#	10515
#	22822
#	38727
#	51492
#	62917
#	74680
#	90977
#	101045
#	115280
#	129552
#
# Disc length: 1889 seconds
#
# Revision: 13
# Processed by: cddbd v1.5.2PL0 Copyright (c) Steve Scherf et al.
# Submitted via: CDex 1.51
#
DISCID=8f075f0b
DTITLE=George Strait - Pure Country Soundtrack
DYEAR=1992
DGENRE=Country
TTITLE0=Heartland
TTITLE1=Baby Your Baby
TTITLE2=I Cross My Heart
TTITLE3=When Did You Stop Loving Me
TTITLE4=She Lays It All On The Line
TTITLE5=Overnight Male
TTITLE6=Last In Love
TTITLE7=Thoughts Of A Fool
TTITLE8=The King Of Broken Hearts
TTITLE9=Where The Sidewalk Ends
TTITLE10=Heartland (Main Title Sequence)
EXTD=YEAR: 1992
EXTT0=
EXTT1=
EXTT2=
EXTT3=
EXTT4=
EXTT5=
EXTT6=
EXTT7=
EXTT8=
EXTT9=
EXTT10=
PLAYORDER=
